<svg xmlns="http://www.w3.org/2000/svg" width="33" height="33"><path d="M 4.125 0 C 3.61 0 3.1 0.2 2.71 0.59 L 0.59 2.71 C -0.19 3.49 -0.19 4.75 0.59 5.54 L 11.55 16.5 L 0.59 27.46 C -0.19 28.24 -0.19 29.5 0.59 30.29 L 2.71 32.41 C 3.49 33.19 4.75 33.19 5.54 32.41 L 16.5 21.45 L 27.46 32.41 C 28.24 33.19 29.5 33.19 30.29 32.41 L 32.41 30.29 C 33.19 29.5 33.19 28.24 32.41 27.46 L 21.45 16.5 L 32.41 5.54 C 33.19 4.75 33.19 3.49 32.41 2.71 L 30.29 0.59 C 29.5 -0.19 28.24 -0.19 27.46 0.59 L 16.5 11.55 L 5.54 0.59 C 5.15 0.2 4.6 0 4.125 0 z " /></svg>
