<svg xmlns="http://www.w3.org/2000/svg" width="16.575" height="4.15" viewBox="0 0 16.575 4.15">
  <path d="M3.05.175A2,2,0,0,1,1.6-.412,1.994,1.994,0,0,1,1-1.9a2.005,2.005,0,0,1,.588-1.5A2.008,2.008,0,0,1,3.05-3.975,2.008,2.008,0,0,1,4.512-3.4,2.005,2.005,0,0,1,5.1-1.9,1.994,1.994,0,0,1,4.5-.412,2,2,0,0,1,3.05.175Zm6.225,0a2,2,0,0,1-1.45-.588,1.994,1.994,0,0,1-.6-1.487,2.005,2.005,0,0,1,.588-1.5,2.008,2.008,0,0,1,1.462-.575,2.008,2.008,0,0,1,1.463.575,2.005,2.005,0,0,1,.587,1.5,1.994,1.994,0,0,1-.6,1.487A2,2,0,0,1,9.275.175Zm6.25,0a2,2,0,0,1-1.45-.588,1.994,1.994,0,0,1-.6-1.487,2.005,2.005,0,0,1,.588-1.5,2.008,2.008,0,0,1,1.462-.575,2.008,2.008,0,0,1,1.462.575,2.005,2.005,0,0,1,.588,1.5,1.994,1.994,0,0,1-.6,1.487A2,2,0,0,1,15.525.175Z" transform="translate(-1 3.975)"/>
</svg>
