<svg viewBox="0 0 24 24" xmlns="http://www.w3.org/2000/svg" >
<path fill="none" stroke="#0b2357" stroke-width="2" stroke-linecap="round" stroke-linejoin="round" d="M 8.34,2.466 H 5.693 c -1.642,0 -2.462,0 -3.09,0.32 C 2.05,3.067 1.602,3.515 1.322,4.067 1.002,4.695 1.002,5.516 1.002,7.158 V 18.3 c 0,1.65 0,2.47 0.32,3.1 0.28,0.54 0.728,1 1.281,1.27 C 3.229,23 4.05,23 5.689,23 H 16.84 c 1.64,0 2.46,0 3.09,-0.33 0.54,-0.27 1,-0.73 1.28,-1.27 0.32,-0.63 0.32,-1.45 0.32,-3.1 V 15.66 M 23,8.338 V 1 m 0,0 H 15.66 M 23,1 12.73,11.26" />
</svg>
