<svg xmlns="http://www.w3.org/2000/svg" width="30" height="29.85" viewBox="0 0 30 29.85">
  <g id="Item_Link_Img" data-name="Item ⏵ Link ⏵ Img" transform="translate(-3 -3)">
    <g id="Frame">
      <path id="Vector" d="M30,15A15.148,15.148,0,0,1,17.4,29.85V19.35h3.45l.6-4.35h-4.2V12.3a2.2,2.2,0,0,1,2.4-2.4H21.6V6.15a21.148,21.148,0,0,0-3.3-.3c-3.45,0-5.7,2.1-5.7,5.85V15H8.85v4.35H12.6v10.5A15.023,15.023,0,0,1,15,0,15.044,15.044,0,0,1,30,15Z" transform="translate(3 3)" fill="#fff"/>
    </g>
  </g>
</svg>
