<svg xmlns="http://www.w3.org/2000/svg" width="30.857" height="30.857" viewBox="0 0 30.857 30.857">
  <path id="Path_8156" data-name="Path 8156" d="M1938.371-1534.857q0,4.6-.1,6.368a9.425,9.425,0,0,1-2.492,6.469,9.421,9.421,0,0,1-6.468,2.491q-1.769.1-6.369.1t-6.368-.1a9.423,9.423,0,0,1-6.469-2.491,9.424,9.424,0,0,1-2.491-6.469q-.1-1.767-.1-6.368t.1-6.369a9.423,9.423,0,0,1,2.491-6.468,9.424,9.424,0,0,1,6.469-2.491q1.767-.1,6.368-.1t6.369.1a9.422,9.422,0,0,1,6.468,2.491,9.424,9.424,0,0,1,2.492,6.468Q1938.37-1539.458,1938.371-1534.857Zm-13.892-12.666-1.537.01-1.537-.01q-1.4-.011-2.119,0t-1.938.06a15.734,15.734,0,0,0-2.07.2,8.038,8.038,0,0,0-1.436.371,5.224,5.224,0,0,0-1.768,1.165,5.214,5.214,0,0,0-1.165,1.768,8.144,8.144,0,0,0-.372,1.437,15.908,15.908,0,0,0-.2,2.069q-.05,1.215-.06,1.939t0,2.119q.009,1.4.01,1.537t-.01,1.537q-.009,1.4,0,2.119t.06,1.939a15.908,15.908,0,0,0,.2,2.069,8.108,8.108,0,0,0,.372,1.436,5.2,5.2,0,0,0,1.165,1.768,5.181,5.181,0,0,0,1.768,1.165,7.949,7.949,0,0,0,1.436.372,15.947,15.947,0,0,0,2.07.2q1.213.049,1.938.06t2.119,0l1.537-.01,1.537.01q1.4.011,2.12,0t1.938-.06a15.908,15.908,0,0,0,2.069-.2,7.96,7.96,0,0,0,1.437-.372,5.19,5.19,0,0,0,1.768-1.165,5.226,5.226,0,0,0,1.165-1.768,8.119,8.119,0,0,0,.372-1.436,15.926,15.926,0,0,0,.2-2.069q.051-1.215.06-1.939t0-2.119q-.009-1.4-.009-1.537t.009-1.537q.01-1.4,0-2.119t-.06-1.939a15.926,15.926,0,0,0-.2-2.069,8.154,8.154,0,0,0-.372-1.437,5.245,5.245,0,0,0-1.165-1.768,5.233,5.233,0,0,0-1.768-1.165,8.049,8.049,0,0,0-1.437-.371,15.7,15.7,0,0,0-2.069-.2q-1.215-.051-1.938-.06T1924.479-1547.523Zm4.068,7.061a7.631,7.631,0,0,1,2.31,5.6,7.633,7.633,0,0,1-2.31,5.605,7.632,7.632,0,0,1-5.6,2.31,7.633,7.633,0,0,1-5.6-2.31,7.633,7.633,0,0,1-2.31-5.605,7.631,7.631,0,0,1,2.31-5.6,7.633,7.633,0,0,1,5.6-2.31A7.632,7.632,0,0,1,1928.547-1540.462Zm-1.969,9.241a4.955,4.955,0,0,0,1.507-3.636,4.953,4.953,0,0,0-1.507-3.636,4.953,4.953,0,0,0-3.636-1.507,4.953,4.953,0,0,0-3.636,1.507,4.956,4.956,0,0,0-1.506,3.636,4.958,4.958,0,0,0,1.506,3.636,4.953,4.953,0,0,0,3.636,1.507A4.953,4.953,0,0,0,1926.578-1531.221Zm5.906-13.178a1.772,1.772,0,0,1,.543,1.305,1.773,1.773,0,0,1-.543,1.306,1.776,1.776,0,0,1-1.305.542,1.778,1.778,0,0,1-1.306-.542,1.78,1.78,0,0,1-.542-1.306,1.779,1.779,0,0,1,.542-1.305,1.779,1.779,0,0,1,1.306-.543A1.776,1.776,0,0,1,1932.484-1544.4Z" transform="translate(-1907.514 1550.286)" fill="#fff"/>
</svg>
