<svg xmlns="http://www.w3.org/2000/svg" width="27" height="27" viewBox="0 0 27 27">
  <g id="Item_Link_Img" data-name="Item ⏵ Link ⏵ Img" transform="translate(-4.5 -4.5)">
    <g id="Frame">
      <path id="Vector" d="M27,1.95v23.1A1.95,1.95,0,0,1,25.05,27H1.95A1.95,1.95,0,0,1,0,25.05V1.95A1.95,1.95,0,0,1,1.95,0h23.1A1.95,1.95,0,0,1,27,1.95ZM8.009,10.122H4V23.007H8.009Zm.318-4.083a2.322,2.322,0,1,0-2.32,2.322A2.323,2.323,0,0,0,8.326,6.039Zm14.684,9.9c0-3.469-.75-6.138-4.8-6.138a4.207,4.207,0,0,0-3.789,2.08h-.056V10.122H10.523V23.007h4V16.633c0-1.68.318-3.309,2.4-3.309,2.055,0,2.08,1.923,2.08,3.417v6.266h4Z" transform="translate(4.5 4.5)" fill="#fff"/>
    </g>
  </g>
</svg>
