<svg xmlns="http://www.w3.org/2000/svg" width="30.857" height="29.491" viewBox="0 0 30.857 29.491">
  <path id="Path_8157" data-name="Path 8157" d="M2250.772-1546.449a3.179,3.179,0,0,1-1.013,2.451,3.787,3.787,0,0,1-2.723.985H2247a3.618,3.618,0,0,1-2.651-.985,3.291,3.291,0,0,1-1-2.451,3.241,3.241,0,0,1,1.034-2.461,3.785,3.785,0,0,1,2.7-.974,3.677,3.677,0,0,1,2.672.974A3.346,3.346,0,0,1,2250.772-1546.449Zm-.421,6.148v19.908h-6.629V-1540.3Zm23.846,8.5v11.411h-6.609v-10.647a5.816,5.816,0,0,0-.814-3.3,2.858,2.858,0,0,0-2.542-1.2,3.256,3.256,0,0,0-2.119.693,4.265,4.265,0,0,0-1.275,1.718,4.833,4.833,0,0,0-.222,1.627v11.109h-6.609q.04-8.016.041-13t-.021-5.946l-.02-.964h6.609v2.892h-.04a8.872,8.872,0,0,1,.824-1.125,8.685,8.685,0,0,1,1.135-1.044,5.232,5.232,0,0,1,1.748-.874,7.948,7.948,0,0,1,2.3-.311,7.133,7.133,0,0,1,5.524,2.28Q2274.2-1536.2,2274.2-1531.8Z" transform="translate(-2243.34 1549.884)" fill="#fff"/>
</svg>
