<svg width="33" height="33" xmlns="http://www.w3.org/2000/svg" >
<path d="M 0.167,2.418 A 2.385,2.385 0 0 1 2.581,0.063 h 27.838 a 2.385,2.385 0 0 1 2.414,2.355 v 28.164 a 2.385,2.385 0 0 1 -2.414,2.355 H 2.581 A 2.385,2.385 0 0 1 0.167,30.582 Z" fill="#0077b5" />
<path d="M 7.8691406 5.5742188 A 2.564 2.564 0 0 0 7.6347656 5.5820312 A 2.574 2.574 0 0 0 4.84375 8.1464844 A 2.554 2.554 0 0 0 7.5683594 10.710938 L 7.6015625 10.710938 A 2.574 2.574 0 0 0 10.392578 8.1464844 A 2.564 2.564 0 0 0 7.8691406 5.5742188 z M 22.183594 12.394531 A 4.914 4.914 0 0 0 17.736328 14.845703 L 17.736328 12.738281 L 12.802734 12.738281 C 12.867734 14.13128 12.802734 27.582031 12.802734 27.582031 L 17.732422 27.582031 L 17.732422 19.287109 A 3.382 3.382 0 0 1 17.894531 18.087891 A 2.7 2.7 0 0 1 20.427734 16.287109 C 22.212733 16.287109 22.927734 17.648533 22.927734 19.644531 L 22.927734 27.585938 L 27.863281 27.585938 L 27.863281 19.074219 C 27.863281 14.515223 25.429591 12.394531 22.183594 12.394531 z M 5.1347656 12.738281 L 5.1347656 27.582031 L 10.068359 27.582031 L 10.068359 12.738281 L 5.1347656 12.738281 z " fill="#fff" />
</svg>
