<svg xmlns="http://www.w3.org/2000/svg" width="16" height="12" viewBox="0 0 16 12">
  <path d="M15.7-10.287c-.7.544-1.625,1.238-4.812,3.553C10.25-6.272,9.116-5.237,8-5.247c-1.109.006-2.222-1.006-2.881-1.487C1.931-9.05,1-9.741.3-10.284a.187.187,0,0,0-.3.147V-3.75a1.5,1.5,0,0,0,1.5,1.5h13A1.5,1.5,0,0,0,16-3.75v-6.391A.188.188,0,0,0,15.7-10.287ZM8-6.25c.725.013,1.769-.913,2.294-1.294,4.147-3.009,4.462-3.272,5.419-4.022A.748.748,0,0,0,16-12.156v-.594a1.5,1.5,0,0,0-1.5-1.5H1.5A1.5,1.5,0,0,0,0-12.75v.594a.752.752,0,0,0,.288.591c.956.747,1.272,1.012,5.419,4.022C6.231-7.162,7.275-6.237,8-6.25Z" transform="translate(0 14.25)"/>
</svg>
