<svg
   xmlns="http://www.w3.org/2000/svg"
   viewBox="0 0 45 50"
   height="50"
   width="45">
  <path
    
     d="M 38.75,0 H 5.93 a 6.25,6.25 0 0 0 -6.25,6.25 v 37.5 A 6.25,6.25 0 0 0 5.93,50 H 38.75 A 6.25,6.25 0 0 0 45,43.75 V 6.25 A 6.25,6.25 0 0 0 38.75,0 m 3.12,43.75 A 3.12,3.12 0 0 1 38.75,46.87 H 5.93 A 3.12,3.12 0 0 1 2.81,43.75 V 6.25 A 3.12,3.12 0 0 1 5.93,3.12 H 38.75 A 3.12,3.12 0 0 1 41.87,6.25 Z M 12.83,12.39 c -0.39,0 -0.78,0.15 -1.07,0.44 l -1.61,1.61 c -0.59,0.59 -0.59,1.55 0,2.15 l 8.35,8.35 -8.35,8.35 c -0.59,0.59 -0.59,1.55 0,2.15 l 1.61,1.61 c 0.59,0.59 1.55,0.59 2.15,0 l 8.35,-8.35 8.35,8.35 c 0.59,0.59 1.55,0.59 2.15,0 l 1.61,-1.61 c 0.59,-0.60 0.59,-1.56 0,-2.15 L 26.04,24.97 34.40,16.61 c 0.59,-0.60 0.59,-1.56 0,-2.15 l -1.61,-1.61 c -0.60,-0.59 -1.56,-0.59 -2.15,0 l -8.35,8.35 -8.35,-8.35 c -0.29,-0.29 -0.71,-0.44 -1.07,-0.44 z"
     />
</svg>
