<svg xmlns="http://www.w3.org/2000/svg" viewBox="0 0 45 50" height="50" width="45">
  <path d="M 38.75,0 H 5.93 a 6.25,6.25 0 0 0 -6.25,6.25 v 37.5 A 6.25,6.25 0 0 0 5.93,50 H 38.75 A 6.25,6.25 0 0 0 45,43.75 V 6.25 A 6.25,6.25 0 0 0 38.75,0 m 3.12,43.75 A 3.12,3.12 0 0 1 38.75,46.87 H 5.93 A 3.12,3.12 0 0 1 2.81,43.75 V 6.25 A 3.12,3.12 0 0 1 5.93,3.12 H 38.75 a 3.12,3.12 0 0 1 3.12,3.12 z" />
  <path d="M 34.06,12.5 H 10.62 a 1.56,1.56 0 0 0 -1.56,1.56 v 1.56 a 1.56,1.56 0 0 0 1.56,1.56 h 23.43 a 1.56,1.56 0 0 0 1.56,-1.56 V 14.06 A 1.56,1.56 0 0 0 34.06,12.5" />
  <path d="M 34.06,22.65 H 10.62 a 1.56,1.56 0 0 0 -1.56,1.56 v 1.56 a 1.56,1.56 0 0 0 1.56,1.56 h 23.43 a 1.56,1.56 0 0 0 1.56,-1.56 v -1.56 a 1.56,1.56 0 0 0 -1.56,-1.56" />
  <path d="M 34.06,32.81 H 10.62 a 1.56,1.56 0 0 0 -1.56,1.56 v 1.56 a 1.56,1.56 0 0 0 1.56,1.56 h 23.43 a 1.56,1.56 0 0 0 1.56,-1.56 v -1.56 a 1.56,1.56 0 0 0 -1.56,-1.56" />
</svg>
