<svg xmlns="http://www.w3.org/2000/svg" xmlns:xlink="http://www.w3.org/1999/xlink" width="55.397" height="71.875" viewBox="0 0 55.397 71.875">
    <path d="M49.151,9.8a6.672,6.672,0,0,0-6.448-5H41.5a6.676,6.676,0,0,0-6.4-4.8H8.867A8.877,8.877,0,0,0,0,8.867V53.934A6.679,6.679,0,0,0,4.7,60.3,6.672,6.672,0,0,0,9.87,66.718a6.673,6.673,0,0,0,6.488,5.157H48.729A6.674,6.674,0,0,0,55.4,65.208V16.45A6.67,6.67,0,0,0,49.151,9.8M2.456,53.934V8.867a6.43,6.43,0,0,1,6.411-6.41h26.24A4.219,4.219,0,0,1,38.872,4.8H12.989a8.306,8.306,0,0,0-8.3,8.3V57.649a4.221,4.221,0,0,1-2.236-3.714M7.168,60.6h0c-.011-.125-.019-.25-.019-.377V13.1a5.857,5.857,0,0,1,5.84-5.84H42.7a4.224,4.224,0,0,1,3.855,2.527h-30.2A6.675,6.675,0,0,0,9.69,16.45V64.087A4.231,4.231,0,0,1,7.168,60.6"/>
</svg>
