<svg xmlns="http://www.w3.org/2000/svg" width="31.661" height="25.714" viewBox="0 0 31.661 25.714">
  <path id="Path_8158" data-name="Path 8158" d="M2310.342-1544.661a13.606,13.606,0,0,1-3.255,3.355c.014.188.02.469.02.844a18.426,18.426,0,0,1-.763,5.213,18.8,18.8,0,0,1-2.321,4.992,19.6,19.6,0,0,1-3.706,4.229,16.5,16.5,0,0,1-5.183,2.933,18.972,18.972,0,0,1-6.488,1.095,18.02,18.02,0,0,1-9.965-2.913,13.8,13.8,0,0,0,1.567.08,12.708,12.708,0,0,0,8.056-2.772,6.327,6.327,0,0,1-3.778-1.3,6.344,6.344,0,0,1-2.29-3.2,8.232,8.232,0,0,0,1.226.1,6.691,6.691,0,0,0,1.708-.222,6.381,6.381,0,0,1-3.727-2.239,6.273,6.273,0,0,1-1.476-4.129v-.08a6.427,6.427,0,0,0,2.932.823,6.475,6.475,0,0,1-2.109-2.31,6.322,6.322,0,0,1-.783-3.093,6.352,6.352,0,0,1,.884-3.275,18.365,18.365,0,0,0,5.916,4.791,18.077,18.077,0,0,0,7.464,2,7.157,7.157,0,0,1-.162-1.487,6.253,6.253,0,0,1,1.9-4.59,6.251,6.251,0,0,1,4.591-1.9,6.255,6.255,0,0,1,4.74,2.049,12.729,12.729,0,0,0,4.119-1.567,6.3,6.3,0,0,1-2.854,3.576A12.925,12.925,0,0,0,2310.342-1544.661Z" transform="translate(-2278.681 1547.714)" fill="#fff"/>
</svg>
