<svg xmlns="http://www.w3.org/2000/svg" width="36.002" height="25.312" viewBox="0 0 36.002 25.312">
  <path id="Path_8154" data-name="Path 8154" d="M1885.913-1547.513q3.375,0,6.519.09t4.611.191l1.466.08q.019,0,.342.03a4.523,4.523,0,0,1,.462.06c.093.02.25.051.472.091a2.786,2.786,0,0,1,.572.161c.161.067.348.154.563.261a3.863,3.863,0,0,1,.623.392,4.76,4.76,0,0,1,.582.532,3.873,3.873,0,0,1,.312.372,6.879,6.879,0,0,1,.583,1.175,7.7,7.7,0,0,1,.532,2.029q.159,1.285.251,2.742t.11,2.28v3.536a42.5,42.5,0,0,1-.361,5.826,8.013,8.013,0,0,1-.5,2,5.028,5.028,0,0,1-.643,1.236l-.281.342a4.77,4.77,0,0,1-.582.532,3.425,3.425,0,0,1-.623.382c-.215.1-.4.184-.563.251a2.857,2.857,0,0,1-.572.161c-.222.04-.382.07-.482.09s-.255.04-.462.06-.319.03-.332.03q-5.043.383-12.6.382-4.158-.04-7.222-.131t-4.028-.15l-.984-.081-.724-.08a9.383,9.383,0,0,1-1.095-.2,6.1,6.1,0,0,1-1.024-.422,3.97,3.97,0,0,1-1.135-.823,3.729,3.729,0,0,1-.311-.372,6.718,6.718,0,0,1-.583-1.175,7.67,7.67,0,0,1-.533-2.029q-.161-1.285-.251-2.742t-.11-2.281v-3.535a42.672,42.672,0,0,1,.361-5.826,8.026,8.026,0,0,1,.5-2,5.1,5.1,0,0,1,.643-1.236l.281-.341a4.842,4.842,0,0,1,.582-.532,3.869,3.869,0,0,1,.623-.392c.214-.107.4-.194.563-.261a2.784,2.784,0,0,1,.572-.161c.222-.04.379-.071.473-.091a4.4,4.4,0,0,1,.462-.06c.213-.02.328-.03.341-.03Q1878.36-1547.513,1885.913-1547.513ZM1882.2-1530.2l9.724-5.023-9.724-5.082Z" transform="translate(-1867.912 1547.513)" fill="#fff"/>
</svg>
